G04 #@! TF.GenerationSoftware,KiCad,Pcbnew,(5.1.4)-1*
G04 #@! TF.CreationDate,2022-04-16T10:18:07+02:00*
G04 #@! TF.ProjectId,cici,63696369-2e6b-4696-9361-645f70636258,rev?*
G04 #@! TF.SameCoordinates,Original*
G04 #@! TF.FileFunction,Soldermask,Top*
G04 #@! TF.FilePolarity,Negative*
%FSLAX46Y46*%
G04 Gerber Fmt 4.6, Leading zero omitted, Abs format (unit mm)*
G04 Created by KiCad (PCBNEW (5.1.4)-1) date 2022-04-16 10:18:07*
%MOMM*%
%LPD*%
G04 APERTURE LIST*
%ADD10O,1.797000X2.178000*%
%ADD11R,1.797000X2.178000*%
%ADD12C,4.800000*%
%ADD13C,4.400000*%
%ADD14C,2.300000*%
G04 APERTURE END LIST*
D10*
X106825000Y-31850000D03*
D11*
X106825000Y-37850000D03*
D12*
X94130000Y-146390000D03*
X134140000Y-30050000D03*
X54060000Y-30050000D03*
X120850000Y-135000000D03*
X67410000Y-135000000D03*
X94130000Y-108950000D03*
X113080000Y-70830000D03*
X75140000Y-70840000D03*
D13*
X103650000Y-137500000D03*
D14*
X98570000Y-137500000D03*
X108730000Y-137500000D03*
D13*
X84600000Y-137500000D03*
D14*
X79520000Y-137500000D03*
X89680000Y-137500000D03*
D13*
X122725000Y-118475000D03*
D14*
X117645000Y-118475000D03*
X127805000Y-118475000D03*
D13*
X103630000Y-118470000D03*
D14*
X98550000Y-118470000D03*
X108710000Y-118470000D03*
D13*
X84580000Y-118450000D03*
D14*
X79500000Y-118450000D03*
X89660000Y-118450000D03*
D13*
X65525000Y-118450000D03*
D14*
X60445000Y-118450000D03*
X70605000Y-118450000D03*
D13*
X122725000Y-99425000D03*
D14*
X117645000Y-99425000D03*
X127805000Y-99425000D03*
D13*
X103575000Y-99425000D03*
D14*
X98495000Y-99425000D03*
X108655000Y-99425000D03*
D13*
X84560000Y-99400000D03*
D14*
X79480000Y-99400000D03*
X89640000Y-99400000D03*
D13*
X65530000Y-99400000D03*
D14*
X60450000Y-99400000D03*
X70610000Y-99400000D03*
D13*
X122625000Y-80350000D03*
D14*
X117545000Y-80350000D03*
X127705000Y-80350000D03*
D13*
X103600000Y-80369000D03*
D14*
X98520000Y-80369000D03*
X108680000Y-80369000D03*
D13*
X84550000Y-80370000D03*
D14*
X79470000Y-80370000D03*
X89630000Y-80370000D03*
D13*
X65525000Y-80370000D03*
D14*
X60445000Y-80370000D03*
X70605000Y-80370000D03*
D13*
X122600000Y-61280000D03*
D14*
X117520000Y-61280000D03*
X127680000Y-61280000D03*
D13*
X103600000Y-61325000D03*
D14*
X98520000Y-61325000D03*
X108680000Y-61325000D03*
D13*
X84550000Y-61325000D03*
D14*
X79470000Y-61325000D03*
X89630000Y-61325000D03*
D13*
X65525000Y-61325000D03*
D14*
X60445000Y-61325000D03*
X70605000Y-61325000D03*
D10*
X109825000Y-43200000D03*
D11*
X109825000Y-49200000D03*
D10*
X127825000Y-43200000D03*
D11*
X127825000Y-49200000D03*
D10*
X124825000Y-43200000D03*
D11*
X124825000Y-49200000D03*
D10*
X121825000Y-43200000D03*
D11*
X121825000Y-49200000D03*
D10*
X118825000Y-43200000D03*
D11*
X118825000Y-49200000D03*
D10*
X115825000Y-43200000D03*
D11*
X115825000Y-49200000D03*
D10*
X112825000Y-43200000D03*
D11*
X112825000Y-49200000D03*
D10*
X106825000Y-43200000D03*
D11*
X106825000Y-49200000D03*
D10*
X103825000Y-43200000D03*
D11*
X103825000Y-49200000D03*
D10*
X127825000Y-31850000D03*
D11*
X127825000Y-37850000D03*
D10*
X124825000Y-31850000D03*
D11*
X124825000Y-37850000D03*
D10*
X121825000Y-31850000D03*
D11*
X121825000Y-37850000D03*
D10*
X118825000Y-31850000D03*
D11*
X118825000Y-37850000D03*
D10*
X115825000Y-31850000D03*
D11*
X115825000Y-37850000D03*
D10*
X112825000Y-31850000D03*
D11*
X112825000Y-37850000D03*
D10*
X109825000Y-31850000D03*
D11*
X109825000Y-37850000D03*
D10*
X103825000Y-31850000D03*
D11*
X103825000Y-37850000D03*
M02*
