G04 #@! TF.GenerationSoftware,KiCad,Pcbnew,(5.1.4)-1*
G04 #@! TF.CreationDate,2022-04-16T10:18:07+02:00*
G04 #@! TF.ProjectId,cici,63696369-2e6b-4696-9361-645f70636258,rev?*
G04 #@! TF.SameCoordinates,Original*
G04 #@! TF.FileFunction,Soldermask,Bot*
G04 #@! TF.FilePolarity,Negative*
%FSLAX46Y46*%
G04 Gerber Fmt 4.6, Leading zero omitted, Abs format (unit mm)*
G04 Created by KiCad (PCBNEW (5.1.4)-1) date 2022-04-16 10:18:07*
%MOMM*%
%LPD*%
G04 APERTURE LIST*
%ADD10R,1.400000X1.800000*%
%ADD11C,4.800000*%
%ADD12C,4.400000*%
%ADD13C,2.300000*%
%ADD14O,2.900000X2.400000*%
%ADD15C,2.400000*%
%ADD16C,1.924000*%
%ADD17O,2.178000X1.797000*%
G04 APERTURE END LIST*
D10*
X106825000Y-33075000D03*
X106825000Y-36625000D03*
D11*
X94130000Y-146390000D03*
X134140000Y-30050000D03*
X54060000Y-30050000D03*
X120850000Y-135000000D03*
X67410000Y-135000000D03*
X94130000Y-108950000D03*
X113080000Y-70830000D03*
X75140000Y-70840000D03*
D12*
X103650000Y-137500000D03*
D13*
X98570000Y-137500000D03*
X108730000Y-137500000D03*
D14*
X106190000Y-132420000D03*
X99840000Y-134960000D03*
D12*
X84600000Y-137500000D03*
D13*
X79520000Y-137500000D03*
X89680000Y-137500000D03*
D14*
X87140000Y-132420000D03*
X80790000Y-134960000D03*
D12*
X122725000Y-118475000D03*
D13*
X117645000Y-118475000D03*
X127805000Y-118475000D03*
D14*
X125265000Y-113395000D03*
X118915000Y-115935000D03*
D12*
X103630000Y-118470000D03*
D13*
X98550000Y-118470000D03*
X108710000Y-118470000D03*
D14*
X106170000Y-113390000D03*
X99820000Y-115930000D03*
D12*
X84580000Y-118450000D03*
D13*
X79500000Y-118450000D03*
X89660000Y-118450000D03*
D14*
X87120000Y-113370000D03*
X80770000Y-115910000D03*
D12*
X65525000Y-118450000D03*
D13*
X60445000Y-118450000D03*
X70605000Y-118450000D03*
D14*
X68065000Y-113370000D03*
X61715000Y-115910000D03*
D12*
X122725000Y-99425000D03*
D13*
X117645000Y-99425000D03*
X127805000Y-99425000D03*
D14*
X125265000Y-94345000D03*
X118915000Y-96885000D03*
D12*
X103575000Y-99425000D03*
D13*
X98495000Y-99425000D03*
X108655000Y-99425000D03*
D14*
X106115000Y-94345000D03*
X99765000Y-96885000D03*
D12*
X84560000Y-99400000D03*
D13*
X79480000Y-99400000D03*
X89640000Y-99400000D03*
D14*
X87100000Y-94320000D03*
X80750000Y-96860000D03*
D12*
X65530000Y-99400000D03*
D13*
X60450000Y-99400000D03*
X70610000Y-99400000D03*
D14*
X68070000Y-94320000D03*
X61720000Y-96860000D03*
D12*
X122625000Y-80350000D03*
D13*
X117545000Y-80350000D03*
X127705000Y-80350000D03*
D14*
X125165000Y-75270000D03*
X118815000Y-77810000D03*
D12*
X103600000Y-80369000D03*
D13*
X98520000Y-80369000D03*
X108680000Y-80369000D03*
D14*
X106140000Y-75289000D03*
X99790000Y-77829000D03*
D12*
X84550000Y-80370000D03*
D13*
X79470000Y-80370000D03*
X89630000Y-80370000D03*
D14*
X87090000Y-75290000D03*
X80740000Y-77830000D03*
D12*
X65525000Y-80370000D03*
D13*
X60445000Y-80370000D03*
X70605000Y-80370000D03*
D14*
X68065000Y-75290000D03*
X61715000Y-77830000D03*
D12*
X122600000Y-61280000D03*
D13*
X117520000Y-61280000D03*
X127680000Y-61280000D03*
D14*
X125140000Y-56200000D03*
X118790000Y-58740000D03*
D12*
X103600000Y-61325000D03*
D13*
X98520000Y-61325000D03*
X108680000Y-61325000D03*
D14*
X106140000Y-56245000D03*
X99790000Y-58785000D03*
D12*
X84550000Y-61325000D03*
D13*
X79470000Y-61325000D03*
X89630000Y-61325000D03*
D14*
X87090000Y-56245000D03*
X80740000Y-58785000D03*
D12*
X65525000Y-61325000D03*
D13*
X60445000Y-61325000D03*
X70605000Y-61325000D03*
D14*
X68065000Y-56245000D03*
X61715000Y-58785000D03*
D15*
X100440000Y-31020000D03*
X93940000Y-31020000D03*
D10*
X109825000Y-44425000D03*
X109825000Y-47975000D03*
D16*
X62747000Y-46433600D03*
X65287000Y-46433600D03*
X67827000Y-46433600D03*
X70367000Y-46433600D03*
X72907000Y-46433600D03*
X75447000Y-46433600D03*
X77987000Y-46433600D03*
X80527000Y-46433600D03*
X83067000Y-46433600D03*
X85607000Y-46433600D03*
X88147000Y-46433600D03*
X90687000Y-46433600D03*
X90687000Y-31213600D03*
X88147000Y-31213600D03*
X85607000Y-31213600D03*
X83067000Y-31213600D03*
X80527000Y-31213600D03*
X77987000Y-31213600D03*
X75447000Y-31213600D03*
X72907000Y-31213600D03*
X70367000Y-31213600D03*
X67827000Y-31213600D03*
X65287000Y-31213600D03*
X62747000Y-31213600D03*
D17*
X94625000Y-35080000D03*
X94625000Y-37620000D03*
X94625000Y-40160000D03*
X94625000Y-42700000D03*
D10*
X127825000Y-44425000D03*
X127825000Y-47975000D03*
X124825000Y-44425000D03*
X124825000Y-47975000D03*
X121825000Y-44425000D03*
X121825000Y-47975000D03*
X118825000Y-44425000D03*
X118825000Y-47975000D03*
X115825000Y-44425000D03*
X115825000Y-47975000D03*
X112825000Y-44425000D03*
X112825000Y-47975000D03*
X106825000Y-44425000D03*
X106825000Y-47975000D03*
X103825000Y-44425000D03*
X103825000Y-47975000D03*
X127825000Y-33075000D03*
X127825000Y-36625000D03*
X124825000Y-33075000D03*
X124825000Y-36625000D03*
X121825000Y-33075000D03*
X121825000Y-36625000D03*
X118825000Y-33075000D03*
X118825000Y-36625000D03*
X115825000Y-33075000D03*
X115825000Y-36625000D03*
X112825000Y-33075000D03*
X112825000Y-36625000D03*
X109825000Y-33075000D03*
X109825000Y-36625000D03*
X103825000Y-33075000D03*
X103825000Y-36625000D03*
M02*
