G04 #@! TF.GenerationSoftware,KiCad,Pcbnew,(5.1.4)-1*
G04 #@! TF.CreationDate,2022-04-16T10:18:07+02:00*
G04 #@! TF.ProjectId,cici,63696369-2e6b-4696-9361-645f70636258,rev?*
G04 #@! TF.SameCoordinates,Original*
G04 #@! TF.FileFunction,Legend,Top*
G04 #@! TF.FilePolarity,Positive*
%FSLAX46Y46*%
G04 Gerber Fmt 4.6, Leading zero omitted, Abs format (unit mm)*
G04 Created by KiCad (PCBNEW (5.1.4)-1) date 2022-04-16 10:18:07*
%MOMM*%
%LPD*%
G04 APERTURE LIST*
%ADD10C,3.000000*%
%ADD11C,0.500000*%
%ADD12C,0.150000*%
%ADD13C,0.125000*%
%ADD14C,0.120000*%
%ADD15O,1.797000X2.178000*%
%ADD16R,1.797000X2.178000*%
%ADD17C,4.800000*%
%ADD18C,4.400000*%
%ADD19C,2.300000*%
G04 APERTURE END LIST*
D10*
X104100000Y-151500000D02*
G75*
G03X104100000Y-151500000I-300000J0D01*
G01*
D11*
X91458333Y-154728571D02*
X91267857Y-154919047D01*
X90696428Y-155109523D01*
X90315476Y-155109523D01*
X89744047Y-154919047D01*
X89363095Y-154538095D01*
X89172619Y-154157142D01*
X88982142Y-153395238D01*
X88982142Y-152823809D01*
X89172619Y-152061904D01*
X89363095Y-151680952D01*
X89744047Y-151300000D01*
X90315476Y-151109523D01*
X90696428Y-151109523D01*
X91267857Y-151300000D01*
X91458333Y-151490476D01*
X93172619Y-155109523D02*
X93172619Y-151109523D01*
X97363095Y-154728571D02*
X97172619Y-154919047D01*
X96601190Y-155109523D01*
X96220238Y-155109523D01*
X95648809Y-154919047D01*
X95267857Y-154538095D01*
X95077380Y-154157142D01*
X94886904Y-153395238D01*
X94886904Y-152823809D01*
X95077380Y-152061904D01*
X95267857Y-151680952D01*
X95648809Y-151300000D01*
X96220238Y-151109523D01*
X96601190Y-151109523D01*
X97172619Y-151300000D01*
X97363095Y-151490476D01*
X99077380Y-155109523D02*
X99077380Y-151109523D01*
D10*
X84900000Y-151500000D02*
G75*
G03X84900000Y-151500000I-300000J0D01*
G01*
D11*
X125306527Y-139809277D02*
G75*
G02X100300000Y-155550000I-32381527J23709277D01*
G01*
X87909052Y-155615152D02*
G75*
G02X62900000Y-139750000I7165948J38940152D01*
G01*
X137153817Y-34000000D02*
X133778817Y-117853305D01*
X58000000Y-27200000D02*
X130375000Y-27200000D01*
X54525000Y-118400000D02*
X51100929Y-34000000D01*
X133778817Y-117853305D02*
G75*
G02X54525000Y-118400000I-39628817J3305D01*
G01*
D12*
X94340000Y-32620000D02*
X94340000Y-32370000D01*
X100040000Y-32620000D02*
X94340000Y-32620000D01*
X100040000Y-32620000D02*
X100040000Y-32370000D01*
X100040000Y-29420000D02*
X100040000Y-29670000D01*
X94340000Y-29420000D02*
X94340000Y-29670000D01*
X100040000Y-29420000D02*
X94340000Y-29420000D01*
X91825000Y-30075000D02*
X91825000Y-30935000D01*
X91825000Y-47575000D02*
X91825000Y-46725000D01*
X90975000Y-30075000D02*
X91825000Y-30075000D01*
X90925000Y-47575000D02*
X91825000Y-47575000D01*
X61625000Y-30075000D02*
X61625000Y-30875000D01*
X61625000Y-47575000D02*
X61625000Y-46725000D01*
X61625000Y-30075000D02*
X62475000Y-30075000D01*
X61625000Y-47575000D02*
X62475000Y-47575000D01*
X56025000Y-42575000D02*
X57325000Y-42575000D01*
X57325000Y-42575000D02*
X57325000Y-35075000D01*
X57325000Y-35075000D02*
X56025000Y-35075000D01*
X56025000Y-35075000D02*
X56025000Y-42575000D01*
X56375000Y-39325000D02*
X56375000Y-38325000D01*
X56375000Y-38325000D02*
X57025000Y-38825000D01*
X57025000Y-38825000D02*
X56375000Y-39325000D01*
X56525000Y-39175000D02*
X56525000Y-38475000D01*
X56675000Y-39075000D02*
X56675000Y-38575000D01*
X56825000Y-38975000D02*
X56825000Y-38675000D01*
X95775000Y-43850000D02*
X93475000Y-43850000D01*
X93475000Y-33950000D02*
X95775000Y-33950000D01*
X93475000Y-43850000D02*
X93475000Y-33950000D01*
X95775000Y-43850000D02*
X95775000Y-33950000D01*
X95737619Y-31472380D02*
X95404285Y-30996190D01*
X95166190Y-31472380D02*
X95166190Y-30472380D01*
X95547142Y-30472380D01*
X95642380Y-30520000D01*
X95690000Y-30567619D01*
X95737619Y-30662857D01*
X95737619Y-30805714D01*
X95690000Y-30900952D01*
X95642380Y-30948571D01*
X95547142Y-30996190D01*
X95166190Y-30996190D01*
X96166190Y-30948571D02*
X96499523Y-30948571D01*
X96642380Y-31472380D02*
X96166190Y-31472380D01*
X96166190Y-30472380D01*
X96642380Y-30472380D01*
X97023333Y-31424761D02*
X97166190Y-31472380D01*
X97404285Y-31472380D01*
X97499523Y-31424761D01*
X97547142Y-31377142D01*
X97594761Y-31281904D01*
X97594761Y-31186666D01*
X97547142Y-31091428D01*
X97499523Y-31043809D01*
X97404285Y-30996190D01*
X97213809Y-30948571D01*
X97118571Y-30900952D01*
X97070952Y-30853333D01*
X97023333Y-30758095D01*
X97023333Y-30662857D01*
X97070952Y-30567619D01*
X97118571Y-30520000D01*
X97213809Y-30472380D01*
X97451904Y-30472380D01*
X97594761Y-30520000D01*
X98023333Y-30948571D02*
X98356666Y-30948571D01*
X98499523Y-31472380D02*
X98023333Y-31472380D01*
X98023333Y-30472380D01*
X98499523Y-30472380D01*
X98785238Y-30472380D02*
X99356666Y-30472380D01*
X99070952Y-31472380D02*
X99070952Y-30472380D01*
D13*
X63064285Y-44282619D02*
X62707142Y-44505952D01*
X63064285Y-44665476D02*
X62314285Y-44665476D01*
X62314285Y-44410238D01*
X62350000Y-44346428D01*
X62385714Y-44314523D01*
X62457142Y-44282619D01*
X62564285Y-44282619D01*
X62635714Y-44314523D01*
X62671428Y-44346428D01*
X62707142Y-44410238D01*
X62707142Y-44665476D01*
X62850000Y-44027380D02*
X62850000Y-43708333D01*
X63064285Y-44091190D02*
X62314285Y-43867857D01*
X63064285Y-43644523D01*
X62314285Y-43485000D02*
X63064285Y-43325476D01*
X62528571Y-43197857D01*
X63064285Y-43070238D01*
X62314285Y-42910714D01*
X64900000Y-44330476D02*
X64864285Y-44394285D01*
X64864285Y-44490000D01*
X64900000Y-44585714D01*
X64971428Y-44649523D01*
X65042857Y-44681428D01*
X65185714Y-44713333D01*
X65292857Y-44713333D01*
X65435714Y-44681428D01*
X65507142Y-44649523D01*
X65578571Y-44585714D01*
X65614285Y-44490000D01*
X65614285Y-44426190D01*
X65578571Y-44330476D01*
X65542857Y-44298571D01*
X65292857Y-44298571D01*
X65292857Y-44426190D01*
X65614285Y-44011428D02*
X64864285Y-44011428D01*
X65614285Y-43628571D01*
X64864285Y-43628571D01*
X65614285Y-43309523D02*
X64864285Y-43309523D01*
X64864285Y-43150000D01*
X64900000Y-43054285D01*
X64971428Y-42990476D01*
X65042857Y-42958571D01*
X65185714Y-42926666D01*
X65292857Y-42926666D01*
X65435714Y-42958571D01*
X65507142Y-42990476D01*
X65578571Y-43054285D01*
X65614285Y-43150000D01*
X65614285Y-43309523D01*
X68164285Y-44186904D02*
X67807142Y-44410238D01*
X68164285Y-44569761D02*
X67414285Y-44569761D01*
X67414285Y-44314523D01*
X67450000Y-44250714D01*
X67485714Y-44218809D01*
X67557142Y-44186904D01*
X67664285Y-44186904D01*
X67735714Y-44218809D01*
X67771428Y-44250714D01*
X67807142Y-44314523D01*
X67807142Y-44569761D01*
X68128571Y-43931666D02*
X68164285Y-43835952D01*
X68164285Y-43676428D01*
X68128571Y-43612619D01*
X68092857Y-43580714D01*
X68021428Y-43548809D01*
X67950000Y-43548809D01*
X67878571Y-43580714D01*
X67842857Y-43612619D01*
X67807142Y-43676428D01*
X67771428Y-43804047D01*
X67735714Y-43867857D01*
X67700000Y-43899761D01*
X67628571Y-43931666D01*
X67557142Y-43931666D01*
X67485714Y-43899761D01*
X67450000Y-43867857D01*
X67414285Y-43804047D01*
X67414285Y-43644523D01*
X67450000Y-43548809D01*
X67414285Y-43357380D02*
X67414285Y-42974523D01*
X68164285Y-43165952D02*
X67414285Y-43165952D01*
X69864285Y-44713333D02*
X70614285Y-44490000D01*
X69864285Y-44266666D01*
X70542857Y-43660476D02*
X70578571Y-43692380D01*
X70614285Y-43788095D01*
X70614285Y-43851904D01*
X70578571Y-43947619D01*
X70507142Y-44011428D01*
X70435714Y-44043333D01*
X70292857Y-44075238D01*
X70185714Y-44075238D01*
X70042857Y-44043333D01*
X69971428Y-44011428D01*
X69900000Y-43947619D01*
X69864285Y-43851904D01*
X69864285Y-43788095D01*
X69900000Y-43692380D01*
X69935714Y-43660476D01*
X70542857Y-42990476D02*
X70578571Y-43022380D01*
X70614285Y-43118095D01*
X70614285Y-43181904D01*
X70578571Y-43277619D01*
X70507142Y-43341428D01*
X70435714Y-43373333D01*
X70292857Y-43405238D01*
X70185714Y-43405238D01*
X70042857Y-43373333D01*
X69971428Y-43341428D01*
X69900000Y-43277619D01*
X69864285Y-43181904D01*
X69864285Y-43118095D01*
X69900000Y-43022380D01*
X69935714Y-42990476D01*
X73100000Y-44655714D02*
X73100000Y-44336666D01*
X73314285Y-44719523D02*
X72564285Y-44496190D01*
X73314285Y-44272857D01*
X72564285Y-44113333D02*
X72564285Y-43698571D01*
X72850000Y-43921904D01*
X72850000Y-43826190D01*
X72885714Y-43762380D01*
X72921428Y-43730476D01*
X72992857Y-43698571D01*
X73171428Y-43698571D01*
X73242857Y-43730476D01*
X73278571Y-43762380D01*
X73314285Y-43826190D01*
X73314285Y-44017619D01*
X73278571Y-44081428D01*
X73242857Y-44113333D01*
X72528571Y-42932857D02*
X73492857Y-43507142D01*
X72921428Y-42486190D02*
X72921428Y-42709523D01*
X73314285Y-42709523D02*
X72564285Y-42709523D01*
X72564285Y-42390476D01*
X72814285Y-41848095D02*
X73314285Y-41848095D01*
X72528571Y-42007619D02*
X73064285Y-42167142D01*
X73064285Y-41752380D01*
X75600000Y-44655714D02*
X75600000Y-44336666D01*
X75814285Y-44719523D02*
X75064285Y-44496190D01*
X75814285Y-44272857D01*
X75135714Y-44081428D02*
X75100000Y-44049523D01*
X75064285Y-43985714D01*
X75064285Y-43826190D01*
X75100000Y-43762380D01*
X75135714Y-43730476D01*
X75207142Y-43698571D01*
X75278571Y-43698571D01*
X75385714Y-43730476D01*
X75814285Y-44113333D01*
X75814285Y-43698571D01*
X75028571Y-42932857D02*
X75992857Y-43507142D01*
X75421428Y-42486190D02*
X75421428Y-42709523D01*
X75814285Y-42709523D02*
X75064285Y-42709523D01*
X75064285Y-42390476D01*
X75064285Y-41816190D02*
X75064285Y-42135238D01*
X75421428Y-42167142D01*
X75385714Y-42135238D01*
X75350000Y-42071428D01*
X75350000Y-41911904D01*
X75385714Y-41848095D01*
X75421428Y-41816190D01*
X75492857Y-41784285D01*
X75671428Y-41784285D01*
X75742857Y-41816190D01*
X75778571Y-41848095D01*
X75814285Y-41911904D01*
X75814285Y-42071428D01*
X75778571Y-42135238D01*
X75742857Y-42167142D01*
X78100000Y-44655714D02*
X78100000Y-44336666D01*
X78314285Y-44719523D02*
X77564285Y-44496190D01*
X78314285Y-44272857D01*
X78314285Y-43698571D02*
X78314285Y-44081428D01*
X78314285Y-43890000D02*
X77564285Y-43890000D01*
X77671428Y-43953809D01*
X77742857Y-44017619D01*
X77778571Y-44081428D01*
X77528571Y-42932857D02*
X78492857Y-43507142D01*
X77921428Y-42486190D02*
X77921428Y-42709523D01*
X78314285Y-42709523D02*
X77564285Y-42709523D01*
X77564285Y-42390476D01*
X77564285Y-41848095D02*
X77564285Y-41975714D01*
X77600000Y-42039523D01*
X77635714Y-42071428D01*
X77742857Y-42135238D01*
X77885714Y-42167142D01*
X78171428Y-42167142D01*
X78242857Y-42135238D01*
X78278571Y-42103333D01*
X78314285Y-42039523D01*
X78314285Y-41911904D01*
X78278571Y-41848095D01*
X78242857Y-41816190D01*
X78171428Y-41784285D01*
X77992857Y-41784285D01*
X77921428Y-41816190D01*
X77885714Y-41848095D01*
X77850000Y-41911904D01*
X77850000Y-42039523D01*
X77885714Y-42103333D01*
X77921428Y-42135238D01*
X77992857Y-42167142D01*
X80650000Y-44655714D02*
X80650000Y-44336666D01*
X80864285Y-44719523D02*
X80114285Y-44496190D01*
X80864285Y-44272857D01*
X80114285Y-43921904D02*
X80114285Y-43858095D01*
X80150000Y-43794285D01*
X80185714Y-43762380D01*
X80257142Y-43730476D01*
X80400000Y-43698571D01*
X80578571Y-43698571D01*
X80721428Y-43730476D01*
X80792857Y-43762380D01*
X80828571Y-43794285D01*
X80864285Y-43858095D01*
X80864285Y-43921904D01*
X80828571Y-43985714D01*
X80792857Y-44017619D01*
X80721428Y-44049523D01*
X80578571Y-44081428D01*
X80400000Y-44081428D01*
X80257142Y-44049523D01*
X80185714Y-44017619D01*
X80150000Y-43985714D01*
X80114285Y-43921904D01*
X80078571Y-42932857D02*
X81042857Y-43507142D01*
X80471428Y-42486190D02*
X80471428Y-42709523D01*
X80864285Y-42709523D02*
X80114285Y-42709523D01*
X80114285Y-42390476D01*
X80114285Y-42199047D02*
X80114285Y-41752380D01*
X80864285Y-42039523D01*
X83414285Y-44352619D02*
X83414285Y-44735476D01*
X83414285Y-44544047D02*
X82664285Y-44544047D01*
X82771428Y-44607857D01*
X82842857Y-44671666D01*
X82878571Y-44735476D01*
X82664285Y-43746428D02*
X82664285Y-44065476D01*
X83021428Y-44097380D01*
X82985714Y-44065476D01*
X82950000Y-44001666D01*
X82950000Y-43842142D01*
X82985714Y-43778333D01*
X83021428Y-43746428D01*
X83092857Y-43714523D01*
X83271428Y-43714523D01*
X83342857Y-43746428D01*
X83378571Y-43778333D01*
X83414285Y-43842142D01*
X83414285Y-44001666D01*
X83378571Y-44065476D01*
X83342857Y-44097380D01*
X82628571Y-42948809D02*
X83592857Y-43523095D01*
X83021428Y-42502142D02*
X83057142Y-42406428D01*
X83092857Y-42374523D01*
X83164285Y-42342619D01*
X83271428Y-42342619D01*
X83342857Y-42374523D01*
X83378571Y-42406428D01*
X83414285Y-42470238D01*
X83414285Y-42725476D01*
X82664285Y-42725476D01*
X82664285Y-42502142D01*
X82700000Y-42438333D01*
X82735714Y-42406428D01*
X82807142Y-42374523D01*
X82878571Y-42374523D01*
X82950000Y-42406428D01*
X82985714Y-42438333D01*
X83021428Y-42502142D01*
X83021428Y-42725476D01*
X83414285Y-41704523D02*
X83414285Y-42087380D01*
X83414285Y-41895952D02*
X82664285Y-41895952D01*
X82771428Y-41959761D01*
X82842857Y-42023571D01*
X82878571Y-42087380D01*
X85964285Y-44352619D02*
X85964285Y-44735476D01*
X85964285Y-44544047D02*
X85214285Y-44544047D01*
X85321428Y-44607857D01*
X85392857Y-44671666D01*
X85428571Y-44735476D01*
X85464285Y-43778333D02*
X85964285Y-43778333D01*
X85178571Y-43937857D02*
X85714285Y-44097380D01*
X85714285Y-43682619D01*
X85178571Y-42948809D02*
X86142857Y-43523095D01*
X85571428Y-42502142D02*
X85607142Y-42406428D01*
X85642857Y-42374523D01*
X85714285Y-42342619D01*
X85821428Y-42342619D01*
X85892857Y-42374523D01*
X85928571Y-42406428D01*
X85964285Y-42470238D01*
X85964285Y-42725476D01*
X85214285Y-42725476D01*
X85214285Y-42502142D01*
X85250000Y-42438333D01*
X85285714Y-42406428D01*
X85357142Y-42374523D01*
X85428571Y-42374523D01*
X85500000Y-42406428D01*
X85535714Y-42438333D01*
X85571428Y-42502142D01*
X85571428Y-42725476D01*
X85214285Y-42119285D02*
X85214285Y-41704523D01*
X85500000Y-41927857D01*
X85500000Y-41832142D01*
X85535714Y-41768333D01*
X85571428Y-41736428D01*
X85642857Y-41704523D01*
X85821428Y-41704523D01*
X85892857Y-41736428D01*
X85928571Y-41768333D01*
X85964285Y-41832142D01*
X85964285Y-42023571D01*
X85928571Y-42087380D01*
X85892857Y-42119285D01*
X91014285Y-44352619D02*
X91014285Y-44735476D01*
X91014285Y-44544047D02*
X90264285Y-44544047D01*
X90371428Y-44607857D01*
X90442857Y-44671666D01*
X90478571Y-44735476D01*
X90264285Y-43937857D02*
X90264285Y-43874047D01*
X90300000Y-43810238D01*
X90335714Y-43778333D01*
X90407142Y-43746428D01*
X90550000Y-43714523D01*
X90728571Y-43714523D01*
X90871428Y-43746428D01*
X90942857Y-43778333D01*
X90978571Y-43810238D01*
X91014285Y-43874047D01*
X91014285Y-43937857D01*
X90978571Y-44001666D01*
X90942857Y-44033571D01*
X90871428Y-44065476D01*
X90728571Y-44097380D01*
X90550000Y-44097380D01*
X90407142Y-44065476D01*
X90335714Y-44033571D01*
X90300000Y-44001666D01*
X90264285Y-43937857D01*
X90228571Y-42948809D02*
X91192857Y-43523095D01*
X90621428Y-42502142D02*
X90657142Y-42406428D01*
X90692857Y-42374523D01*
X90764285Y-42342619D01*
X90871428Y-42342619D01*
X90942857Y-42374523D01*
X90978571Y-42406428D01*
X91014285Y-42470238D01*
X91014285Y-42725476D01*
X90264285Y-42725476D01*
X90264285Y-42502142D01*
X90300000Y-42438333D01*
X90335714Y-42406428D01*
X90407142Y-42374523D01*
X90478571Y-42374523D01*
X90550000Y-42406428D01*
X90585714Y-42438333D01*
X90621428Y-42502142D01*
X90621428Y-42725476D01*
X90264285Y-41768333D02*
X90264285Y-41895952D01*
X90300000Y-41959761D01*
X90335714Y-41991666D01*
X90442857Y-42055476D01*
X90585714Y-42087380D01*
X90871428Y-42087380D01*
X90942857Y-42055476D01*
X90978571Y-42023571D01*
X91014285Y-41959761D01*
X91014285Y-41832142D01*
X90978571Y-41768333D01*
X90942857Y-41736428D01*
X90871428Y-41704523D01*
X90692857Y-41704523D01*
X90621428Y-41736428D01*
X90585714Y-41768333D01*
X90550000Y-41832142D01*
X90550000Y-41959761D01*
X90585714Y-42023571D01*
X90621428Y-42055476D01*
X90692857Y-42087380D01*
X88514285Y-44352619D02*
X88514285Y-44735476D01*
X88514285Y-44544047D02*
X87764285Y-44544047D01*
X87871428Y-44607857D01*
X87942857Y-44671666D01*
X87978571Y-44735476D01*
X87764285Y-43778333D02*
X87764285Y-43905952D01*
X87800000Y-43969761D01*
X87835714Y-44001666D01*
X87942857Y-44065476D01*
X88085714Y-44097380D01*
X88371428Y-44097380D01*
X88442857Y-44065476D01*
X88478571Y-44033571D01*
X88514285Y-43969761D01*
X88514285Y-43842142D01*
X88478571Y-43778333D01*
X88442857Y-43746428D01*
X88371428Y-43714523D01*
X88192857Y-43714523D01*
X88121428Y-43746428D01*
X88085714Y-43778333D01*
X88050000Y-43842142D01*
X88050000Y-43969761D01*
X88085714Y-44033571D01*
X88121428Y-44065476D01*
X88192857Y-44097380D01*
X87728571Y-42948809D02*
X88692857Y-43523095D01*
X88121428Y-42502142D02*
X88157142Y-42406428D01*
X88192857Y-42374523D01*
X88264285Y-42342619D01*
X88371428Y-42342619D01*
X88442857Y-42374523D01*
X88478571Y-42406428D01*
X88514285Y-42470238D01*
X88514285Y-42725476D01*
X87764285Y-42725476D01*
X87764285Y-42502142D01*
X87800000Y-42438333D01*
X87835714Y-42406428D01*
X87907142Y-42374523D01*
X87978571Y-42374523D01*
X88050000Y-42406428D01*
X88085714Y-42438333D01*
X88121428Y-42502142D01*
X88121428Y-42725476D01*
X87835714Y-42087380D02*
X87800000Y-42055476D01*
X87764285Y-41991666D01*
X87764285Y-41832142D01*
X87800000Y-41768333D01*
X87835714Y-41736428D01*
X87907142Y-41704523D01*
X87978571Y-41704523D01*
X88085714Y-41736428D01*
X88514285Y-42119285D01*
X88514285Y-41704523D01*
X85421428Y-35252619D02*
X85421428Y-35029285D01*
X85814285Y-34933571D02*
X85814285Y-35252619D01*
X85064285Y-35252619D01*
X85064285Y-34933571D01*
X85064285Y-34359285D02*
X85064285Y-34486904D01*
X85100000Y-34550714D01*
X85135714Y-34582619D01*
X85242857Y-34646428D01*
X85385714Y-34678333D01*
X85671428Y-34678333D01*
X85742857Y-34646428D01*
X85778571Y-34614523D01*
X85814285Y-34550714D01*
X85814285Y-34423095D01*
X85778571Y-34359285D01*
X85742857Y-34327380D01*
X85671428Y-34295476D01*
X85492857Y-34295476D01*
X85421428Y-34327380D01*
X85385714Y-34359285D01*
X85350000Y-34423095D01*
X85350000Y-34550714D01*
X85385714Y-34614523D01*
X85421428Y-34646428D01*
X85492857Y-34678333D01*
X85028571Y-33529761D02*
X85992857Y-34104047D01*
X85064285Y-33370238D02*
X85064285Y-32923571D01*
X85814285Y-33210714D01*
X83264285Y-35284523D02*
X82514285Y-35284523D01*
X82514285Y-35125000D01*
X82550000Y-35029285D01*
X82621428Y-34965476D01*
X82692857Y-34933571D01*
X82835714Y-34901666D01*
X82942857Y-34901666D01*
X83085714Y-34933571D01*
X83157142Y-34965476D01*
X83228571Y-35029285D01*
X83264285Y-35125000D01*
X83264285Y-35284523D01*
X82514285Y-34678333D02*
X82514285Y-34231666D01*
X83264285Y-34518809D01*
X82478571Y-33497857D02*
X83442857Y-34072142D01*
X82514285Y-32987380D02*
X82514285Y-33115000D01*
X82550000Y-33178809D01*
X82585714Y-33210714D01*
X82692857Y-33274523D01*
X82835714Y-33306428D01*
X83121428Y-33306428D01*
X83192857Y-33274523D01*
X83228571Y-33242619D01*
X83264285Y-33178809D01*
X83264285Y-33051190D01*
X83228571Y-32987380D01*
X83192857Y-32955476D01*
X83121428Y-32923571D01*
X82942857Y-32923571D01*
X82871428Y-32955476D01*
X82835714Y-32987380D01*
X82800000Y-33051190D01*
X82800000Y-33178809D01*
X82835714Y-33242619D01*
X82871428Y-33274523D01*
X82942857Y-33306428D01*
X67500000Y-34380476D02*
X67464285Y-34444285D01*
X67464285Y-34540000D01*
X67500000Y-34635714D01*
X67571428Y-34699523D01*
X67642857Y-34731428D01*
X67785714Y-34763333D01*
X67892857Y-34763333D01*
X68035714Y-34731428D01*
X68107142Y-34699523D01*
X68178571Y-34635714D01*
X68214285Y-34540000D01*
X68214285Y-34476190D01*
X68178571Y-34380476D01*
X68142857Y-34348571D01*
X67892857Y-34348571D01*
X67892857Y-34476190D01*
X68214285Y-34061428D02*
X67464285Y-34061428D01*
X68214285Y-33678571D01*
X67464285Y-33678571D01*
X68214285Y-33359523D02*
X67464285Y-33359523D01*
X67464285Y-33200000D01*
X67500000Y-33104285D01*
X67571428Y-33040476D01*
X67642857Y-33008571D01*
X67785714Y-32976666D01*
X67892857Y-32976666D01*
X68035714Y-33008571D01*
X68107142Y-33040476D01*
X68178571Y-33104285D01*
X68214285Y-33200000D01*
X68214285Y-33359523D01*
X69950000Y-34380476D02*
X69914285Y-34444285D01*
X69914285Y-34540000D01*
X69950000Y-34635714D01*
X70021428Y-34699523D01*
X70092857Y-34731428D01*
X70235714Y-34763333D01*
X70342857Y-34763333D01*
X70485714Y-34731428D01*
X70557142Y-34699523D01*
X70628571Y-34635714D01*
X70664285Y-34540000D01*
X70664285Y-34476190D01*
X70628571Y-34380476D01*
X70592857Y-34348571D01*
X70342857Y-34348571D01*
X70342857Y-34476190D01*
X70664285Y-34061428D02*
X69914285Y-34061428D01*
X70664285Y-33678571D01*
X69914285Y-33678571D01*
X70664285Y-33359523D02*
X69914285Y-33359523D01*
X69914285Y-33200000D01*
X69950000Y-33104285D01*
X70021428Y-33040476D01*
X70092857Y-33008571D01*
X70235714Y-32976666D01*
X70342857Y-32976666D01*
X70485714Y-33008571D01*
X70557142Y-33040476D01*
X70628571Y-33104285D01*
X70664285Y-33200000D01*
X70664285Y-33359523D01*
X63114285Y-36408809D02*
X62364285Y-36408809D01*
X62364285Y-36249285D01*
X62400000Y-36153571D01*
X62471428Y-36089761D01*
X62542857Y-36057857D01*
X62685714Y-36025952D01*
X62792857Y-36025952D01*
X62935714Y-36057857D01*
X63007142Y-36089761D01*
X63078571Y-36153571D01*
X63114285Y-36249285D01*
X63114285Y-36408809D01*
X62364285Y-35802619D02*
X62364285Y-35387857D01*
X62650000Y-35611190D01*
X62650000Y-35515476D01*
X62685714Y-35451666D01*
X62721428Y-35419761D01*
X62792857Y-35387857D01*
X62971428Y-35387857D01*
X63042857Y-35419761D01*
X63078571Y-35451666D01*
X63114285Y-35515476D01*
X63114285Y-35706904D01*
X63078571Y-35770714D01*
X63042857Y-35802619D01*
X62328571Y-34622142D02*
X63292857Y-35196428D01*
X62364285Y-34494523D02*
X62364285Y-34111666D01*
X63114285Y-34303095D02*
X62364285Y-34303095D01*
X62364285Y-33952142D02*
X63114285Y-33505476D01*
X62364285Y-33505476D02*
X63114285Y-33952142D01*
X62364285Y-33122619D02*
X62364285Y-33058809D01*
X62400000Y-32995000D01*
X62435714Y-32963095D01*
X62507142Y-32931190D01*
X62650000Y-32899285D01*
X62828571Y-32899285D01*
X62971428Y-32931190D01*
X63042857Y-32963095D01*
X63078571Y-32995000D01*
X63114285Y-33058809D01*
X63114285Y-33122619D01*
X63078571Y-33186428D01*
X63042857Y-33218333D01*
X62971428Y-33250238D01*
X62828571Y-33282142D01*
X62650000Y-33282142D01*
X62507142Y-33250238D01*
X62435714Y-33218333D01*
X62400000Y-33186428D01*
X62364285Y-33122619D01*
X78164285Y-35284523D02*
X77414285Y-35284523D01*
X77414285Y-35125000D01*
X77450000Y-35029285D01*
X77521428Y-34965476D01*
X77592857Y-34933571D01*
X77735714Y-34901666D01*
X77842857Y-34901666D01*
X77985714Y-34933571D01*
X78057142Y-34965476D01*
X78128571Y-35029285D01*
X78164285Y-35125000D01*
X78164285Y-35284523D01*
X77664285Y-34327380D02*
X78164285Y-34327380D01*
X77378571Y-34486904D02*
X77914285Y-34646428D01*
X77914285Y-34231666D01*
X77378571Y-33497857D02*
X78342857Y-34072142D01*
X77664285Y-32987380D02*
X78164285Y-32987380D01*
X77378571Y-33146904D02*
X77914285Y-33306428D01*
X77914285Y-32891666D01*
X73128571Y-37858571D02*
X73164285Y-37762857D01*
X73164285Y-37603333D01*
X73128571Y-37539523D01*
X73092857Y-37507619D01*
X73021428Y-37475714D01*
X72950000Y-37475714D01*
X72878571Y-37507619D01*
X72842857Y-37539523D01*
X72807142Y-37603333D01*
X72771428Y-37730952D01*
X72735714Y-37794761D01*
X72700000Y-37826666D01*
X72628571Y-37858571D01*
X72557142Y-37858571D01*
X72485714Y-37826666D01*
X72450000Y-37794761D01*
X72414285Y-37730952D01*
X72414285Y-37571428D01*
X72450000Y-37475714D01*
X73164285Y-37188571D02*
X72414285Y-37188571D01*
X72414285Y-37029047D01*
X72450000Y-36933333D01*
X72521428Y-36869523D01*
X72592857Y-36837619D01*
X72735714Y-36805714D01*
X72842857Y-36805714D01*
X72985714Y-36837619D01*
X73057142Y-36869523D01*
X73128571Y-36933333D01*
X73164285Y-37029047D01*
X73164285Y-37188571D01*
X72950000Y-36550476D02*
X72950000Y-36231428D01*
X73164285Y-36614285D02*
X72414285Y-36390952D01*
X73164285Y-36167619D01*
X72378571Y-35465714D02*
X73342857Y-36040000D01*
X73164285Y-35242380D02*
X72414285Y-35242380D01*
X72414285Y-35082857D01*
X72450000Y-34987142D01*
X72521428Y-34923333D01*
X72592857Y-34891428D01*
X72735714Y-34859523D01*
X72842857Y-34859523D01*
X72985714Y-34891428D01*
X73057142Y-34923333D01*
X73128571Y-34987142D01*
X73164285Y-35082857D01*
X73164285Y-35242380D01*
X73164285Y-34221428D02*
X73164285Y-34604285D01*
X73164285Y-34412857D02*
X72414285Y-34412857D01*
X72521428Y-34476666D01*
X72592857Y-34540476D01*
X72628571Y-34604285D01*
X72378571Y-33455714D02*
X73342857Y-34030000D01*
X72485714Y-33264285D02*
X72450000Y-33232380D01*
X72414285Y-33168571D01*
X72414285Y-33009047D01*
X72450000Y-32945238D01*
X72485714Y-32913333D01*
X72557142Y-32881428D01*
X72628571Y-32881428D01*
X72735714Y-32913333D01*
X73164285Y-33296190D01*
X73164285Y-32881428D01*
X75628571Y-37842619D02*
X75664285Y-37746904D01*
X75664285Y-37587380D01*
X75628571Y-37523571D01*
X75592857Y-37491666D01*
X75521428Y-37459761D01*
X75450000Y-37459761D01*
X75378571Y-37491666D01*
X75342857Y-37523571D01*
X75307142Y-37587380D01*
X75271428Y-37715000D01*
X75235714Y-37778809D01*
X75200000Y-37810714D01*
X75128571Y-37842619D01*
X75057142Y-37842619D01*
X74985714Y-37810714D01*
X74950000Y-37778809D01*
X74914285Y-37715000D01*
X74914285Y-37555476D01*
X74950000Y-37459761D01*
X75592857Y-36789761D02*
X75628571Y-36821666D01*
X75664285Y-36917380D01*
X75664285Y-36981190D01*
X75628571Y-37076904D01*
X75557142Y-37140714D01*
X75485714Y-37172619D01*
X75342857Y-37204523D01*
X75235714Y-37204523D01*
X75092857Y-37172619D01*
X75021428Y-37140714D01*
X74950000Y-37076904D01*
X74914285Y-36981190D01*
X74914285Y-36917380D01*
X74950000Y-36821666D01*
X74985714Y-36789761D01*
X75664285Y-36183571D02*
X75664285Y-36502619D01*
X74914285Y-36502619D01*
X74878571Y-35481666D02*
X75842857Y-36055952D01*
X75664285Y-35258333D02*
X74914285Y-35258333D01*
X74914285Y-35098809D01*
X74950000Y-35003095D01*
X75021428Y-34939285D01*
X75092857Y-34907380D01*
X75235714Y-34875476D01*
X75342857Y-34875476D01*
X75485714Y-34907380D01*
X75557142Y-34939285D01*
X75628571Y-35003095D01*
X75664285Y-35098809D01*
X75664285Y-35258333D01*
X74914285Y-34460714D02*
X74914285Y-34396904D01*
X74950000Y-34333095D01*
X74985714Y-34301190D01*
X75057142Y-34269285D01*
X75200000Y-34237380D01*
X75378571Y-34237380D01*
X75521428Y-34269285D01*
X75592857Y-34301190D01*
X75628571Y-34333095D01*
X75664285Y-34396904D01*
X75664285Y-34460714D01*
X75628571Y-34524523D01*
X75592857Y-34556428D01*
X75521428Y-34588333D01*
X75378571Y-34620238D01*
X75200000Y-34620238D01*
X75057142Y-34588333D01*
X74985714Y-34556428D01*
X74950000Y-34524523D01*
X74914285Y-34460714D01*
X74878571Y-33471666D02*
X75842857Y-34045952D01*
X74914285Y-33312142D02*
X74914285Y-32897380D01*
X75200000Y-33120714D01*
X75200000Y-33025000D01*
X75235714Y-32961190D01*
X75271428Y-32929285D01*
X75342857Y-32897380D01*
X75521428Y-32897380D01*
X75592857Y-32929285D01*
X75628571Y-32961190D01*
X75664285Y-33025000D01*
X75664285Y-33216428D01*
X75628571Y-33280238D01*
X75592857Y-33312142D01*
X80642857Y-34901666D02*
X80678571Y-34933571D01*
X80714285Y-35029285D01*
X80714285Y-35093095D01*
X80678571Y-35188809D01*
X80607142Y-35252619D01*
X80535714Y-35284523D01*
X80392857Y-35316428D01*
X80285714Y-35316428D01*
X80142857Y-35284523D01*
X80071428Y-35252619D01*
X80000000Y-35188809D01*
X79964285Y-35093095D01*
X79964285Y-35029285D01*
X80000000Y-34933571D01*
X80035714Y-34901666D01*
X79964285Y-34327380D02*
X79964285Y-34455000D01*
X80000000Y-34518809D01*
X80035714Y-34550714D01*
X80142857Y-34614523D01*
X80285714Y-34646428D01*
X80571428Y-34646428D01*
X80642857Y-34614523D01*
X80678571Y-34582619D01*
X80714285Y-34518809D01*
X80714285Y-34391190D01*
X80678571Y-34327380D01*
X80642857Y-34295476D01*
X80571428Y-34263571D01*
X80392857Y-34263571D01*
X80321428Y-34295476D01*
X80285714Y-34327380D01*
X80250000Y-34391190D01*
X80250000Y-34518809D01*
X80285714Y-34582619D01*
X80321428Y-34614523D01*
X80392857Y-34646428D01*
X79928571Y-33497857D02*
X80892857Y-34072142D01*
X79964285Y-32955476D02*
X79964285Y-33274523D01*
X80321428Y-33306428D01*
X80285714Y-33274523D01*
X80250000Y-33210714D01*
X80250000Y-33051190D01*
X80285714Y-32987380D01*
X80321428Y-32955476D01*
X80392857Y-32923571D01*
X80571428Y-32923571D01*
X80642857Y-32955476D01*
X80678571Y-32987380D01*
X80714285Y-33051190D01*
X80714285Y-33210714D01*
X80678571Y-33274523D01*
X80642857Y-33306428D01*
X90471428Y-35061190D02*
X90507142Y-34965476D01*
X90542857Y-34933571D01*
X90614285Y-34901666D01*
X90721428Y-34901666D01*
X90792857Y-34933571D01*
X90828571Y-34965476D01*
X90864285Y-35029285D01*
X90864285Y-35284523D01*
X90114285Y-35284523D01*
X90114285Y-35061190D01*
X90150000Y-34997380D01*
X90185714Y-34965476D01*
X90257142Y-34933571D01*
X90328571Y-34933571D01*
X90400000Y-34965476D01*
X90435714Y-34997380D01*
X90471428Y-35061190D01*
X90471428Y-35284523D01*
X90114285Y-34295476D02*
X90114285Y-34614523D01*
X90471428Y-34646428D01*
X90435714Y-34614523D01*
X90400000Y-34550714D01*
X90400000Y-34391190D01*
X90435714Y-34327380D01*
X90471428Y-34295476D01*
X90542857Y-34263571D01*
X90721428Y-34263571D01*
X90792857Y-34295476D01*
X90828571Y-34327380D01*
X90864285Y-34391190D01*
X90864285Y-34550714D01*
X90828571Y-34614523D01*
X90792857Y-34646428D01*
X90078571Y-33497857D02*
X91042857Y-34072142D01*
X90864285Y-33242619D02*
X90864285Y-33115000D01*
X90828571Y-33051190D01*
X90792857Y-33019285D01*
X90685714Y-32955476D01*
X90542857Y-32923571D01*
X90257142Y-32923571D01*
X90185714Y-32955476D01*
X90150000Y-32987380D01*
X90114285Y-33051190D01*
X90114285Y-33178809D01*
X90150000Y-33242619D01*
X90185714Y-33274523D01*
X90257142Y-33306428D01*
X90435714Y-33306428D01*
X90507142Y-33274523D01*
X90542857Y-33242619D01*
X90578571Y-33178809D01*
X90578571Y-33051190D01*
X90542857Y-32987380D01*
X90507142Y-32955476D01*
X90435714Y-32923571D01*
X65664285Y-36488571D02*
X64914285Y-36488571D01*
X64914285Y-36329047D01*
X64950000Y-36233333D01*
X65021428Y-36169523D01*
X65092857Y-36137619D01*
X65235714Y-36105714D01*
X65342857Y-36105714D01*
X65485714Y-36137619D01*
X65557142Y-36169523D01*
X65628571Y-36233333D01*
X65664285Y-36329047D01*
X65664285Y-36488571D01*
X64985714Y-35850476D02*
X64950000Y-35818571D01*
X64914285Y-35754761D01*
X64914285Y-35595238D01*
X64950000Y-35531428D01*
X64985714Y-35499523D01*
X65057142Y-35467619D01*
X65128571Y-35467619D01*
X65235714Y-35499523D01*
X65664285Y-35882380D01*
X65664285Y-35467619D01*
X64878571Y-34701904D02*
X65842857Y-35276190D01*
X65664285Y-34095714D02*
X65307142Y-34319047D01*
X65664285Y-34478571D02*
X64914285Y-34478571D01*
X64914285Y-34223333D01*
X64950000Y-34159523D01*
X64985714Y-34127619D01*
X65057142Y-34095714D01*
X65164285Y-34095714D01*
X65235714Y-34127619D01*
X65271428Y-34159523D01*
X65307142Y-34223333D01*
X65307142Y-34478571D01*
X64914285Y-33872380D02*
X65664285Y-33425714D01*
X64914285Y-33425714D02*
X65664285Y-33872380D01*
X65664285Y-32819523D02*
X65664285Y-33202380D01*
X65664285Y-33010952D02*
X64914285Y-33010952D01*
X65021428Y-33074761D01*
X65092857Y-33138571D01*
X65128571Y-33202380D01*
X87971428Y-35061190D02*
X88007142Y-34965476D01*
X88042857Y-34933571D01*
X88114285Y-34901666D01*
X88221428Y-34901666D01*
X88292857Y-34933571D01*
X88328571Y-34965476D01*
X88364285Y-35029285D01*
X88364285Y-35284523D01*
X87614285Y-35284523D01*
X87614285Y-35061190D01*
X87650000Y-34997380D01*
X87685714Y-34965476D01*
X87757142Y-34933571D01*
X87828571Y-34933571D01*
X87900000Y-34965476D01*
X87935714Y-34997380D01*
X87971428Y-35061190D01*
X87971428Y-35284523D01*
X87864285Y-34327380D02*
X88364285Y-34327380D01*
X87578571Y-34486904D02*
X88114285Y-34646428D01*
X88114285Y-34231666D01*
X87578571Y-33497857D02*
X88542857Y-34072142D01*
X87935714Y-33178809D02*
X87900000Y-33242619D01*
X87864285Y-33274523D01*
X87792857Y-33306428D01*
X87757142Y-33306428D01*
X87685714Y-33274523D01*
X87650000Y-33242619D01*
X87614285Y-33178809D01*
X87614285Y-33051190D01*
X87650000Y-32987380D01*
X87685714Y-32955476D01*
X87757142Y-32923571D01*
X87792857Y-32923571D01*
X87864285Y-32955476D01*
X87900000Y-32987380D01*
X87935714Y-33051190D01*
X87935714Y-33178809D01*
X87971428Y-33242619D01*
X88007142Y-33274523D01*
X88078571Y-33306428D01*
X88221428Y-33306428D01*
X88292857Y-33274523D01*
X88328571Y-33242619D01*
X88364285Y-33178809D01*
X88364285Y-33051190D01*
X88328571Y-32987380D01*
X88292857Y-32955476D01*
X88221428Y-32923571D01*
X88078571Y-32923571D01*
X88007142Y-32955476D01*
X87971428Y-32987380D01*
X87935714Y-33051190D01*
D14*
X58614285Y-41321428D02*
X57864285Y-41321428D01*
X58400000Y-41071428D01*
X57864285Y-40821428D01*
X58614285Y-40821428D01*
X58614285Y-40464285D02*
X58114285Y-40464285D01*
X57864285Y-40464285D02*
X57900000Y-40500000D01*
X57935714Y-40464285D01*
X57900000Y-40428571D01*
X57864285Y-40464285D01*
X57935714Y-40464285D01*
X58578571Y-39785714D02*
X58614285Y-39857142D01*
X58614285Y-40000000D01*
X58578571Y-40071428D01*
X58542857Y-40107142D01*
X58471428Y-40142857D01*
X58257142Y-40142857D01*
X58185714Y-40107142D01*
X58150000Y-40071428D01*
X58114285Y-40000000D01*
X58114285Y-39857142D01*
X58150000Y-39785714D01*
X58614285Y-39464285D02*
X58114285Y-39464285D01*
X58257142Y-39464285D02*
X58185714Y-39428571D01*
X58150000Y-39392857D01*
X58114285Y-39321428D01*
X58114285Y-39250000D01*
X58614285Y-38892857D02*
X58578571Y-38964285D01*
X58542857Y-39000000D01*
X58471428Y-39035714D01*
X58257142Y-39035714D01*
X58185714Y-39000000D01*
X58150000Y-38964285D01*
X58114285Y-38892857D01*
X58114285Y-38785714D01*
X58150000Y-38714285D01*
X58185714Y-38678571D01*
X58257142Y-38642857D01*
X58471428Y-38642857D01*
X58542857Y-38678571D01*
X58578571Y-38714285D01*
X58614285Y-38785714D01*
X58614285Y-38892857D01*
X57864285Y-38321428D02*
X58471428Y-38321428D01*
X58542857Y-38285714D01*
X58578571Y-38250000D01*
X58614285Y-38178571D01*
X58614285Y-38035714D01*
X58578571Y-37964285D01*
X58542857Y-37928571D01*
X58471428Y-37892857D01*
X57864285Y-37892857D01*
X58578571Y-37571428D02*
X58614285Y-37464285D01*
X58614285Y-37285714D01*
X58578571Y-37214285D01*
X58542857Y-37178571D01*
X58471428Y-37142857D01*
X58400000Y-37142857D01*
X58328571Y-37178571D01*
X58292857Y-37214285D01*
X58257142Y-37285714D01*
X58221428Y-37428571D01*
X58185714Y-37500000D01*
X58150000Y-37535714D01*
X58078571Y-37571428D01*
X58007142Y-37571428D01*
X57935714Y-37535714D01*
X57900000Y-37500000D01*
X57864285Y-37428571D01*
X57864285Y-37250000D01*
X57900000Y-37142857D01*
X58221428Y-36571428D02*
X58257142Y-36464285D01*
X58292857Y-36428571D01*
X58364285Y-36392857D01*
X58471428Y-36392857D01*
X58542857Y-36428571D01*
X58578571Y-36464285D01*
X58614285Y-36535714D01*
X58614285Y-36821428D01*
X57864285Y-36821428D01*
X57864285Y-36571428D01*
X57900000Y-36500000D01*
X57935714Y-36464285D01*
X58007142Y-36428571D01*
X58078571Y-36428571D01*
X58150000Y-36464285D01*
X58185714Y-36500000D01*
X58221428Y-36571428D01*
X58221428Y-36821428D01*
D12*
X91977380Y-40352380D02*
X91977380Y-40161904D01*
X92025000Y-40066666D01*
X92120238Y-39971428D01*
X92310714Y-39923809D01*
X92644047Y-39923809D01*
X92834523Y-39971428D01*
X92929761Y-40066666D01*
X92977380Y-40161904D01*
X92977380Y-40352380D01*
X92929761Y-40447619D01*
X92834523Y-40542857D01*
X92644047Y-40590476D01*
X92310714Y-40590476D01*
X92120238Y-40542857D01*
X92025000Y-40447619D01*
X91977380Y-40352380D01*
X92977380Y-39019047D02*
X92977380Y-39495238D01*
X91977380Y-39495238D01*
X92453571Y-38685714D02*
X92453571Y-38352380D01*
X92977380Y-38209523D02*
X92977380Y-38685714D01*
X91977380Y-38685714D01*
X91977380Y-38209523D01*
X92977380Y-37780952D02*
X91977380Y-37780952D01*
X91977380Y-37542857D01*
X92025000Y-37400000D01*
X92120238Y-37304761D01*
X92215476Y-37257142D01*
X92405952Y-37209523D01*
X92548809Y-37209523D01*
X92739285Y-37257142D01*
X92834523Y-37304761D01*
X92929761Y-37400000D01*
X92977380Y-37542857D01*
X92977380Y-37780952D01*
%LPC*%
D15*
X106825000Y-31850000D03*
D16*
X106825000Y-37850000D03*
D17*
X94130000Y-146390000D03*
X134140000Y-30050000D03*
X54060000Y-30050000D03*
X120850000Y-135000000D03*
X67410000Y-135000000D03*
X94130000Y-108950000D03*
X113080000Y-70830000D03*
X75140000Y-70840000D03*
D18*
X103650000Y-137500000D03*
D19*
X98570000Y-137500000D03*
X108730000Y-137500000D03*
D18*
X84600000Y-137500000D03*
D19*
X79520000Y-137500000D03*
X89680000Y-137500000D03*
D18*
X122725000Y-118475000D03*
D19*
X117645000Y-118475000D03*
X127805000Y-118475000D03*
D18*
X103630000Y-118470000D03*
D19*
X98550000Y-118470000D03*
X108710000Y-118470000D03*
D18*
X84580000Y-118450000D03*
D19*
X79500000Y-118450000D03*
X89660000Y-118450000D03*
D18*
X65525000Y-118450000D03*
D19*
X60445000Y-118450000D03*
X70605000Y-118450000D03*
D18*
X122725000Y-99425000D03*
D19*
X117645000Y-99425000D03*
X127805000Y-99425000D03*
D18*
X103575000Y-99425000D03*
D19*
X98495000Y-99425000D03*
X108655000Y-99425000D03*
D18*
X84560000Y-99400000D03*
D19*
X79480000Y-99400000D03*
X89640000Y-99400000D03*
D18*
X65530000Y-99400000D03*
D19*
X60450000Y-99400000D03*
X70610000Y-99400000D03*
D18*
X122625000Y-80350000D03*
D19*
X117545000Y-80350000D03*
X127705000Y-80350000D03*
D18*
X103600000Y-80369000D03*
D19*
X98520000Y-80369000D03*
X108680000Y-80369000D03*
D18*
X84550000Y-80370000D03*
D19*
X79470000Y-80370000D03*
X89630000Y-80370000D03*
D18*
X65525000Y-80370000D03*
D19*
X60445000Y-80370000D03*
X70605000Y-80370000D03*
D18*
X122600000Y-61280000D03*
D19*
X117520000Y-61280000D03*
X127680000Y-61280000D03*
D18*
X103600000Y-61325000D03*
D19*
X98520000Y-61325000D03*
X108680000Y-61325000D03*
D18*
X84550000Y-61325000D03*
D19*
X79470000Y-61325000D03*
X89630000Y-61325000D03*
D18*
X65525000Y-61325000D03*
D19*
X60445000Y-61325000D03*
X70605000Y-61325000D03*
D15*
X109825000Y-43200000D03*
D16*
X109825000Y-49200000D03*
D15*
X127825000Y-43200000D03*
D16*
X127825000Y-49200000D03*
D15*
X124825000Y-43200000D03*
D16*
X124825000Y-49200000D03*
D15*
X121825000Y-43200000D03*
D16*
X121825000Y-49200000D03*
D15*
X118825000Y-43200000D03*
D16*
X118825000Y-49200000D03*
D15*
X115825000Y-43200000D03*
D16*
X115825000Y-49200000D03*
D15*
X112825000Y-43200000D03*
D16*
X112825000Y-49200000D03*
D15*
X106825000Y-43200000D03*
D16*
X106825000Y-49200000D03*
D15*
X103825000Y-43200000D03*
D16*
X103825000Y-49200000D03*
D15*
X127825000Y-31850000D03*
D16*
X127825000Y-37850000D03*
D15*
X124825000Y-31850000D03*
D16*
X124825000Y-37850000D03*
D15*
X121825000Y-31850000D03*
D16*
X121825000Y-37850000D03*
D15*
X118825000Y-31850000D03*
D16*
X118825000Y-37850000D03*
D15*
X115825000Y-31850000D03*
D16*
X115825000Y-37850000D03*
D15*
X112825000Y-31850000D03*
D16*
X112825000Y-37850000D03*
D15*
X109825000Y-31850000D03*
D16*
X109825000Y-37850000D03*
D15*
X103825000Y-31850000D03*
D16*
X103825000Y-37850000D03*
M02*
