M48
; DRILL file {KiCad (5.1.4)-1} date 16/04/2022 10:17:30
; FORMAT={-:-/ absolute / metric / decimal}
; #@! TF.CreationDate,2022-04-16T10:17:30+02:00
; #@! TF.GenerationSoftware,Kicad,Pcbnew,(5.1.4)-1
; #@! TF.FileFunction,NonPlated,1,2,NPTH
FMAT,2
METRIC
T1C1.900
T2C4.000
%
G90
G05
T1
X117.645Y-99.425
X127.805Y-99.425
X79.52Y-137.5
X89.68Y-137.5
X117.545Y-80.35
X127.705Y-80.35
X79.47Y-61.325
X89.63Y-61.325
X79.48Y-99.4
X89.64Y-99.4
X117.645Y-118.475
X127.805Y-118.475
X98.57Y-137.5
X108.73Y-137.5
X60.445Y-80.37
X70.605Y-80.37
X98.55Y-118.47
X108.71Y-118.47
X98.52Y-61.325
X108.68Y-61.325
X60.45Y-99.4
X70.61Y-99.4
X79.5Y-118.45
X89.66Y-118.45
X98.52Y-80.369
X108.68Y-80.369
X60.445Y-61.325
X70.605Y-61.325
X98.495Y-99.425
X108.655Y-99.425
X60.445Y-118.45
X70.605Y-118.45
X79.47Y-80.37
X89.63Y-80.37
X117.52Y-61.28
X127.68Y-61.28
T2
X103.575Y-99.425
X65.525Y-118.45
X84.55Y-80.37
X122.6Y-61.28
X122.725Y-99.425
X84.6Y-137.5
X122.625Y-80.35
X84.55Y-61.325
X84.56Y-99.4
X122.725Y-118.475
X103.65Y-137.5
X65.525Y-80.37
X103.63Y-118.47
X103.6Y-61.325
X65.53Y-99.4
X84.58Y-118.45
X103.6Y-80.369
X65.525Y-61.325
T0
M30
