M48
; DRILL file {KiCad (5.1.4)-1} date 16/04/2022 10:17:30
; FORMAT={-:-/ absolute / metric / decimal}
; #@! TF.CreationDate,2022-04-16T10:17:30+02:00
; #@! TF.GenerationSoftware,Kicad,Pcbnew,(5.1.4)-1
; #@! TF.FileFunction,Plated,1,2,PTH
FMAT,2
METRIC
T1C0.400
T2C0.800
T3C0.813
T4C1.300
T5C2.200
%
G90
G05
T1
X84.225Y-34.35
X92.499Y-35.85
X92.949Y-34.7
X96.56Y-32.08
X96.95Y-52.025
X100.06Y-32.77
X101.825Y-37.57
X102.175Y-50.275
X102.288Y-29.25
X102.4Y-32.925
X105.0Y-28.8
X105.25Y-50.275
X105.425Y-32.925
X108.225Y-50.275
X108.275Y-32.925
X111.2Y-32.925
X111.275Y-50.275
X114.2Y-50.275
X114.35Y-32.925
X117.525Y-32.925
X120.325Y-32.925
X123.45Y-32.925
X126.6Y-32.925
X126.601Y-88.4
X128.006Y-88.022
X128.79Y-107.15
X129.075Y-87.5
X129.57Y-108.005
T3
X115.825Y-43.2
X115.825Y-49.2
X124.825Y-43.2
X124.825Y-49.2
X103.825Y-43.2
X103.825Y-49.2
X121.825Y-43.2
X121.825Y-49.2
X118.825Y-31.85
X118.825Y-37.85
X109.825Y-31.85
X109.825Y-37.85
X121.825Y-31.85
X121.825Y-37.85
X127.825Y-31.85
X127.825Y-37.85
X103.825Y-31.85
X103.825Y-37.85
X109.825Y-43.2
X109.825Y-49.2
X94.625Y-35.08
X94.625Y-37.62
X94.625Y-40.16
X94.625Y-42.7
X112.825Y-31.85
X112.825Y-37.85
X106.825Y-31.85
X106.825Y-37.85
X118.825Y-43.2
X118.825Y-49.2
X62.747Y-31.214
X62.747Y-46.434
X65.287Y-31.214
X65.287Y-46.434
X67.827Y-31.214
X67.827Y-46.434
X70.367Y-31.214
X70.367Y-46.434
X72.907Y-31.214
X72.907Y-46.434
X75.447Y-31.214
X75.447Y-46.434
X77.987Y-31.214
X77.987Y-46.434
X80.527Y-31.214
X80.527Y-46.434
X83.067Y-31.214
X83.067Y-46.434
X85.607Y-31.214
X85.607Y-46.434
X88.147Y-31.214
X88.147Y-46.434
X90.687Y-31.214
X90.687Y-46.434
X112.825Y-43.2
X112.825Y-49.2
X106.825Y-43.2
X106.825Y-49.2
X127.825Y-43.2
X127.825Y-49.2
X115.825Y-31.85
X115.825Y-37.85
X124.825Y-31.85
X124.825Y-37.85
T4
X93.94Y-31.02
X100.44Y-31.02
T5
X54.06Y-30.05
X94.13Y-146.39
X134.14Y-30.05
X120.85Y-135.0
X67.41Y-135.0
X113.08Y-70.83
X94.13Y-108.95
X75.14Y-70.84
T2
G00X118.715Y-96.885
M15
G01X119.115Y-96.885
M16
G05
G00X125.065Y-94.345
M15
G01X125.465Y-94.345
M16
G05
G00X80.59Y-134.96
M15
G01X80.99Y-134.96
M16
G05
G00X86.94Y-132.42
M15
G01X87.34Y-132.42
M16
G05
G00X118.615Y-77.81
M15
G01X119.015Y-77.81
M16
G05
G00X124.965Y-75.27
M15
G01X125.365Y-75.27
M16
G05
G00X80.54Y-58.785
M15
G01X80.94Y-58.785
M16
G05
G00X86.89Y-56.245
M15
G01X87.29Y-56.245
M16
G05
G00X80.55Y-96.86
M15
G01X80.95Y-96.86
M16
G05
G00X86.9Y-94.32
M15
G01X87.3Y-94.32
M16
G05
G00X118.715Y-115.935
M15
G01X119.115Y-115.935
M16
G05
G00X125.065Y-113.395
M15
G01X125.465Y-113.395
M16
G05
G00X99.64Y-134.96
M15
G01X100.04Y-134.96
M16
G05
G00X105.99Y-132.42
M15
G01X106.39Y-132.42
M16
G05
G00X61.515Y-77.83
M15
G01X61.915Y-77.83
M16
G05
G00X67.865Y-75.29
M15
G01X68.265Y-75.29
M16
G05
G00X99.62Y-115.93
M15
G01X100.02Y-115.93
M16
G05
G00X105.97Y-113.39
M15
G01X106.37Y-113.39
M16
G05
G00X99.59Y-58.785
M15
G01X99.99Y-58.785
M16
G05
G00X105.94Y-56.245
M15
G01X106.34Y-56.245
M16
G05
G00X61.52Y-96.86
M15
G01X61.92Y-96.86
M16
G05
G00X67.87Y-94.32
M15
G01X68.27Y-94.32
M16
G05
G00X80.57Y-115.91
M15
G01X80.97Y-115.91
M16
G05
G00X86.92Y-113.37
M15
G01X87.32Y-113.37
M16
G05
G00X99.59Y-77.829
M15
G01X99.99Y-77.829
M16
G05
G00X105.94Y-75.289
M15
G01X106.34Y-75.289
M16
G05
G00X61.515Y-58.785
M15
G01X61.915Y-58.785
M16
G05
G00X67.865Y-56.245
M15
G01X68.265Y-56.245
M16
G05
G00X99.565Y-96.885
M15
G01X99.965Y-96.885
M16
G05
G00X105.915Y-94.345
M15
G01X106.315Y-94.345
M16
G05
G00X61.515Y-115.91
M15
G01X61.915Y-115.91
M16
G05
G00X67.865Y-113.37
M15
G01X68.265Y-113.37
M16
G05
G00X80.54Y-77.83
M15
G01X80.94Y-77.83
M16
G05
G00X86.89Y-75.29
M15
G01X87.29Y-75.29
M16
G05
G00X118.59Y-58.74
M15
G01X118.99Y-58.74
M16
G05
G00X124.94Y-56.2
M15
G01X125.34Y-56.2
M16
G05
T0
M30
