G04 #@! TF.GenerationSoftware,KiCad,Pcbnew,(5.1.4)-1*
G04 #@! TF.CreationDate,2022-04-16T10:18:07+02:00*
G04 #@! TF.ProjectId,cici,63696369-2e6b-4696-9361-645f70636258,rev?*
G04 #@! TF.SameCoordinates,Original*
G04 #@! TF.FileFunction,Legend,Bot*
G04 #@! TF.FilePolarity,Positive*
%FSLAX46Y46*%
G04 Gerber Fmt 4.6, Leading zero omitted, Abs format (unit mm)*
G04 Created by KiCad (PCBNEW (5.1.4)-1) date 2022-04-16 10:18:07*
%MOMM*%
%LPD*%
G04 APERTURE LIST*
%ADD10C,0.500000*%
%ADD11C,0.300000*%
%ADD12C,3.000000*%
%ADD13C,0.150000*%
%ADD14R,1.400000X1.800000*%
%ADD15C,4.800000*%
%ADD16C,4.400000*%
%ADD17C,2.300000*%
%ADD18O,2.900000X2.400000*%
%ADD19C,2.400000*%
%ADD20C,1.924000*%
%ADD21O,2.178000X1.797000*%
G04 APERTURE END LIST*
D10*
X58000000Y-27200000D02*
X130375000Y-27200000D01*
D11*
X98625000Y-149807142D02*
X97482142Y-149807142D01*
X96910714Y-149378571D02*
X96125000Y-149378571D01*
X96910714Y-150378571D01*
X96125000Y-150378571D01*
X94910714Y-150378571D02*
X94910714Y-149592857D01*
X94982142Y-149450000D01*
X95125000Y-149378571D01*
X95410714Y-149378571D01*
X95553571Y-149450000D01*
X94910714Y-150307142D02*
X95053571Y-150378571D01*
X95410714Y-150378571D01*
X95553571Y-150307142D01*
X95625000Y-150164285D01*
X95625000Y-150021428D01*
X95553571Y-149878571D01*
X95410714Y-149807142D01*
X95053571Y-149807142D01*
X94910714Y-149735714D01*
X94196428Y-149378571D02*
X94196428Y-150378571D01*
X94196428Y-149521428D02*
X94125000Y-149450000D01*
X93982142Y-149378571D01*
X93767857Y-149378571D01*
X93625000Y-149450000D01*
X93553571Y-149592857D01*
X93553571Y-150378571D01*
X92839285Y-149378571D02*
X92839285Y-150378571D01*
X92839285Y-149521428D02*
X92767857Y-149450000D01*
X92625000Y-149378571D01*
X92410714Y-149378571D01*
X92267857Y-149450000D01*
X92196428Y-149592857D01*
X92196428Y-150378571D01*
X91482142Y-150378571D02*
X91482142Y-149378571D01*
X91482142Y-148878571D02*
X91553571Y-148950000D01*
X91482142Y-149021428D01*
X91410714Y-148950000D01*
X91482142Y-148878571D01*
X91482142Y-149021428D01*
X90767857Y-149807142D02*
X89625000Y-149807142D01*
D12*
X84900000Y-151500000D02*
G75*
G03X84900000Y-151500000I-300000J0D01*
G01*
X104100000Y-151500000D02*
G75*
G03X104100000Y-151500000I-300000J0D01*
G01*
D10*
X96791666Y-154728571D02*
X96982142Y-154919047D01*
X97553571Y-155109523D01*
X97934523Y-155109523D01*
X98505952Y-154919047D01*
X98886904Y-154538095D01*
X99077380Y-154157142D01*
X99267857Y-153395238D01*
X99267857Y-152823809D01*
X99077380Y-152061904D01*
X98886904Y-151680952D01*
X98505952Y-151300000D01*
X97934523Y-151109523D01*
X97553571Y-151109523D01*
X96982142Y-151300000D01*
X96791666Y-151490476D01*
X95077380Y-155109523D02*
X95077380Y-151109523D01*
X90886904Y-154728571D02*
X91077380Y-154919047D01*
X91648809Y-155109523D01*
X92029761Y-155109523D01*
X92601190Y-154919047D01*
X92982142Y-154538095D01*
X93172619Y-154157142D01*
X93363095Y-153395238D01*
X93363095Y-152823809D01*
X93172619Y-152061904D01*
X92982142Y-151680952D01*
X92601190Y-151300000D01*
X92029761Y-151109523D01*
X91648809Y-151109523D01*
X91077380Y-151300000D01*
X90886904Y-151490476D01*
X89172619Y-155109523D02*
X89172619Y-151109523D01*
D13*
X107325000Y-35350000D02*
X106325000Y-35350000D01*
X106325000Y-34350000D02*
X106825000Y-35250000D01*
X107325000Y-34350000D02*
X106325000Y-34350000D01*
X106825000Y-35250000D02*
X107325000Y-34350000D01*
X110325000Y-46700000D02*
X109325000Y-46700000D01*
X109325000Y-45700000D02*
X109825000Y-46600000D01*
X110325000Y-45700000D02*
X109325000Y-45700000D01*
X109825000Y-46600000D02*
X110325000Y-45700000D01*
X128325000Y-46700000D02*
X127325000Y-46700000D01*
X127325000Y-45700000D02*
X127825000Y-46600000D01*
X128325000Y-45700000D02*
X127325000Y-45700000D01*
X127825000Y-46600000D02*
X128325000Y-45700000D01*
X125325000Y-46700000D02*
X124325000Y-46700000D01*
X124325000Y-45700000D02*
X124825000Y-46600000D01*
X125325000Y-45700000D02*
X124325000Y-45700000D01*
X124825000Y-46600000D02*
X125325000Y-45700000D01*
X122325000Y-46700000D02*
X121325000Y-46700000D01*
X121325000Y-45700000D02*
X121825000Y-46600000D01*
X122325000Y-45700000D02*
X121325000Y-45700000D01*
X121825000Y-46600000D02*
X122325000Y-45700000D01*
X119325000Y-46700000D02*
X118325000Y-46700000D01*
X118325000Y-45700000D02*
X118825000Y-46600000D01*
X119325000Y-45700000D02*
X118325000Y-45700000D01*
X118825000Y-46600000D02*
X119325000Y-45700000D01*
X116325000Y-46700000D02*
X115325000Y-46700000D01*
X115325000Y-45700000D02*
X115825000Y-46600000D01*
X116325000Y-45700000D02*
X115325000Y-45700000D01*
X115825000Y-46600000D02*
X116325000Y-45700000D01*
X113325000Y-46700000D02*
X112325000Y-46700000D01*
X112325000Y-45700000D02*
X112825000Y-46600000D01*
X113325000Y-45700000D02*
X112325000Y-45700000D01*
X112825000Y-46600000D02*
X113325000Y-45700000D01*
X107325000Y-46700000D02*
X106325000Y-46700000D01*
X106325000Y-45700000D02*
X106825000Y-46600000D01*
X107325000Y-45700000D02*
X106325000Y-45700000D01*
X106825000Y-46600000D02*
X107325000Y-45700000D01*
X104325000Y-46700000D02*
X103325000Y-46700000D01*
X103325000Y-45700000D02*
X103825000Y-46600000D01*
X104325000Y-45700000D02*
X103325000Y-45700000D01*
X103825000Y-46600000D02*
X104325000Y-45700000D01*
X128325000Y-35350000D02*
X127325000Y-35350000D01*
X127325000Y-34350000D02*
X127825000Y-35250000D01*
X128325000Y-34350000D02*
X127325000Y-34350000D01*
X127825000Y-35250000D02*
X128325000Y-34350000D01*
X125325000Y-35350000D02*
X124325000Y-35350000D01*
X124325000Y-34350000D02*
X124825000Y-35250000D01*
X125325000Y-34350000D02*
X124325000Y-34350000D01*
X124825000Y-35250000D02*
X125325000Y-34350000D01*
X122325000Y-35350000D02*
X121325000Y-35350000D01*
X121325000Y-34350000D02*
X121825000Y-35250000D01*
X122325000Y-34350000D02*
X121325000Y-34350000D01*
X121825000Y-35250000D02*
X122325000Y-34350000D01*
X119325000Y-35350000D02*
X118325000Y-35350000D01*
X118325000Y-34350000D02*
X118825000Y-35250000D01*
X119325000Y-34350000D02*
X118325000Y-34350000D01*
X118825000Y-35250000D02*
X119325000Y-34350000D01*
X116325000Y-35350000D02*
X115325000Y-35350000D01*
X115325000Y-34350000D02*
X115825000Y-35250000D01*
X116325000Y-34350000D02*
X115325000Y-34350000D01*
X115825000Y-35250000D02*
X116325000Y-34350000D01*
X113325000Y-35350000D02*
X112325000Y-35350000D01*
X112325000Y-34350000D02*
X112825000Y-35250000D01*
X113325000Y-34350000D02*
X112325000Y-34350000D01*
X112825000Y-35250000D02*
X113325000Y-34350000D01*
X110325000Y-35350000D02*
X109325000Y-35350000D01*
X109325000Y-34350000D02*
X109825000Y-35250000D01*
X110325000Y-34350000D02*
X109325000Y-34350000D01*
X109825000Y-35250000D02*
X110325000Y-34350000D01*
X104325000Y-35350000D02*
X103325000Y-35350000D01*
X103325000Y-34350000D02*
X103825000Y-35250000D01*
X104325000Y-34350000D02*
X103325000Y-34350000D01*
X103825000Y-35250000D02*
X104325000Y-34350000D01*
%LPC*%
D14*
X106825000Y-33075000D03*
X106825000Y-36625000D03*
D15*
X94130000Y-146390000D03*
X134140000Y-30050000D03*
X54060000Y-30050000D03*
X120850000Y-135000000D03*
X67410000Y-135000000D03*
X94130000Y-108950000D03*
X113080000Y-70830000D03*
X75140000Y-70840000D03*
D16*
X103650000Y-137500000D03*
D17*
X98570000Y-137500000D03*
X108730000Y-137500000D03*
D18*
X106190000Y-132420000D03*
X99840000Y-134960000D03*
D16*
X84600000Y-137500000D03*
D17*
X79520000Y-137500000D03*
X89680000Y-137500000D03*
D18*
X87140000Y-132420000D03*
X80790000Y-134960000D03*
D16*
X122725000Y-118475000D03*
D17*
X117645000Y-118475000D03*
X127805000Y-118475000D03*
D18*
X125265000Y-113395000D03*
X118915000Y-115935000D03*
D16*
X103630000Y-118470000D03*
D17*
X98550000Y-118470000D03*
X108710000Y-118470000D03*
D18*
X106170000Y-113390000D03*
X99820000Y-115930000D03*
D16*
X84580000Y-118450000D03*
D17*
X79500000Y-118450000D03*
X89660000Y-118450000D03*
D18*
X87120000Y-113370000D03*
X80770000Y-115910000D03*
D16*
X65525000Y-118450000D03*
D17*
X60445000Y-118450000D03*
X70605000Y-118450000D03*
D18*
X68065000Y-113370000D03*
X61715000Y-115910000D03*
D16*
X122725000Y-99425000D03*
D17*
X117645000Y-99425000D03*
X127805000Y-99425000D03*
D18*
X125265000Y-94345000D03*
X118915000Y-96885000D03*
D16*
X103575000Y-99425000D03*
D17*
X98495000Y-99425000D03*
X108655000Y-99425000D03*
D18*
X106115000Y-94345000D03*
X99765000Y-96885000D03*
D16*
X84560000Y-99400000D03*
D17*
X79480000Y-99400000D03*
X89640000Y-99400000D03*
D18*
X87100000Y-94320000D03*
X80750000Y-96860000D03*
D16*
X65530000Y-99400000D03*
D17*
X60450000Y-99400000D03*
X70610000Y-99400000D03*
D18*
X68070000Y-94320000D03*
X61720000Y-96860000D03*
D16*
X122625000Y-80350000D03*
D17*
X117545000Y-80350000D03*
X127705000Y-80350000D03*
D18*
X125165000Y-75270000D03*
X118815000Y-77810000D03*
D16*
X103600000Y-80369000D03*
D17*
X98520000Y-80369000D03*
X108680000Y-80369000D03*
D18*
X106140000Y-75289000D03*
X99790000Y-77829000D03*
D16*
X84550000Y-80370000D03*
D17*
X79470000Y-80370000D03*
X89630000Y-80370000D03*
D18*
X87090000Y-75290000D03*
X80740000Y-77830000D03*
D16*
X65525000Y-80370000D03*
D17*
X60445000Y-80370000D03*
X70605000Y-80370000D03*
D18*
X68065000Y-75290000D03*
X61715000Y-77830000D03*
D16*
X122600000Y-61280000D03*
D17*
X117520000Y-61280000D03*
X127680000Y-61280000D03*
D18*
X125140000Y-56200000D03*
X118790000Y-58740000D03*
D16*
X103600000Y-61325000D03*
D17*
X98520000Y-61325000D03*
X108680000Y-61325000D03*
D18*
X106140000Y-56245000D03*
X99790000Y-58785000D03*
D16*
X84550000Y-61325000D03*
D17*
X79470000Y-61325000D03*
X89630000Y-61325000D03*
D18*
X87090000Y-56245000D03*
X80740000Y-58785000D03*
D16*
X65525000Y-61325000D03*
D17*
X60445000Y-61325000D03*
X70605000Y-61325000D03*
D18*
X68065000Y-56245000D03*
X61715000Y-58785000D03*
D19*
X100440000Y-31020000D03*
X93940000Y-31020000D03*
D14*
X109825000Y-44425000D03*
X109825000Y-47975000D03*
D20*
X62747000Y-46433600D03*
X65287000Y-46433600D03*
X67827000Y-46433600D03*
X70367000Y-46433600D03*
X72907000Y-46433600D03*
X75447000Y-46433600D03*
X77987000Y-46433600D03*
X80527000Y-46433600D03*
X83067000Y-46433600D03*
X85607000Y-46433600D03*
X88147000Y-46433600D03*
X90687000Y-46433600D03*
X90687000Y-31213600D03*
X88147000Y-31213600D03*
X85607000Y-31213600D03*
X83067000Y-31213600D03*
X80527000Y-31213600D03*
X77987000Y-31213600D03*
X75447000Y-31213600D03*
X72907000Y-31213600D03*
X70367000Y-31213600D03*
X67827000Y-31213600D03*
X65287000Y-31213600D03*
X62747000Y-31213600D03*
D21*
X94625000Y-35080000D03*
X94625000Y-37620000D03*
X94625000Y-40160000D03*
X94625000Y-42700000D03*
D14*
X127825000Y-44425000D03*
X127825000Y-47975000D03*
X124825000Y-44425000D03*
X124825000Y-47975000D03*
X121825000Y-44425000D03*
X121825000Y-47975000D03*
X118825000Y-44425000D03*
X118825000Y-47975000D03*
X115825000Y-44425000D03*
X115825000Y-47975000D03*
X112825000Y-44425000D03*
X112825000Y-47975000D03*
X106825000Y-44425000D03*
X106825000Y-47975000D03*
X103825000Y-44425000D03*
X103825000Y-47975000D03*
X127825000Y-33075000D03*
X127825000Y-36625000D03*
X124825000Y-33075000D03*
X124825000Y-36625000D03*
X121825000Y-33075000D03*
X121825000Y-36625000D03*
X118825000Y-33075000D03*
X118825000Y-36625000D03*
X115825000Y-33075000D03*
X115825000Y-36625000D03*
X112825000Y-33075000D03*
X112825000Y-36625000D03*
X109825000Y-33075000D03*
X109825000Y-36625000D03*
X103825000Y-33075000D03*
X103825000Y-36625000D03*
M02*
